<svg width="24" height="24" viewBox="0 0 24 24" fill="none" xmlns="http://www.w3.org/2000/svg">
<g clip-path="url(#clip0_36_399)">
<rect width="24" height="24" fill="white"/>
<path d="M23 22V9.50002C23 9.30002 22.881 9.11902 22.697 9.04002L15.697 6.04001C15.542 5.97301 15.365 5.98901 15.225 6.08201C15.084 6.17501 15 6.33201 15 6.50001V22H14V0.750005C14 0.503005 13.879 0.272004 13.676 0.132004C13.472 -0.00799606 13.214 -0.0389961 12.983 0.049004L2.483 4.04901C2.192 4.16001 2 4.43901 2 4.75001V22H1C0.448 22 0 22.447 0 23C0 23.553 0.448 24 1 24H23C23.552 24 24 23.553 24 23C24 22.447 23.552 22 23 22ZM20 12.75C20 12.336 20.336 12 20.75 12C21.164 12 21.5 12.336 21.5 12.75V14.25C21.5 14.664 21.164 15 20.75 15C20.336 15 20 14.664 20 14.25V12.75ZM20 18.75C20 18.336 20.336 18 20.75 18C21.164 18 21.5 18.336 21.5 18.75V20.25C21.5 20.664 21.164 21 20.75 21C20.336 21 20 20.664 20 20.25V18.75ZM16.5 12.75C16.5 12.336 16.836 12 17.25 12C17.664 12 18 12.336 18 12.75V14.25C18 14.664 17.664 15 17.25 15C16.836 15 16.5 14.664 16.5 14.25V12.75ZM16.5 18.75C16.5 18.336 16.836 18 17.25 18C17.664 18 18 18.336 18 18.75V20.25C18 20.664 17.664 21 17.25 21C16.836 21 16.5 20.664 16.5 20.25V18.75ZM9.5 6.75001C9.5 6.33601 9.836 6.00001 10.25 6.00001C10.664 6.00001 11 6.33601 11 6.75001V8.25001C11 8.66402 10.664 9.00002 10.25 9.00002C9.836 9.00002 9.5 8.66402 9.5 8.25001V6.75001ZM9.5 12.75C9.5 12.336 9.836 12 10.25 12C10.664 12 11 12.336 11 12.75V14.25C11 14.664 10.664 15 10.25 15C9.836 15 9.5 14.664 9.5 14.25V12.75ZM9.5 18.75C9.5 18.336 9.836 18 10.25 18C10.664 18 11 18.336 11 18.75V20.25C11 20.664 10.664 21 10.25 21C9.836 21 9.5 20.664 9.5 20.25V18.75ZM5 6.75001C5 6.33601 5.336 6.00001 5.75 6.00001C6.164 6.00001 6.5 6.33601 6.5 6.75001V8.25001C6.5 8.66402 6.164 9.00002 5.75 9.00002C5.336 9.00002 5 8.66402 5 8.25001V6.75001ZM5 12.75C5 12.336 5.336 12 5.75 12C6.164 12 6.5 12.336 6.5 12.75V14.25C6.5 14.664 6.164 15 5.75 15C5.336 15 5 14.664 5 14.25V12.75ZM5 18.75C5 18.336 5.336 18 5.75 18C6.164 18 6.5 18.336 6.5 18.75V20.25C6.5 20.664 6.164 21 5.75 21C5.336 21 5 20.664 5 20.25V18.75Z" fill="url(#paint0_linear_36_399)"/>
</g>
<defs>
<linearGradient id="paint0_linear_36_399" x1="12" y1="-0.000320435" x2="12" y2="24" gradientUnits="userSpaceOnUse">
<stop stop-color="#7FD9F0"/>
<stop offset="1" stop-color="#F99FB3"/>
</linearGradient>
<clipPath id="clip0_36_399">
<rect width="24" height="24" fill="white"/>
</clipPath>
</defs>
</svg>
