<svg width="30" height="30" viewBox="0 0 30 30" fill="none" xmlns="http://www.w3.org/2000/svg">
<g clip-path="url(#clip0_34_336)">
<path d="M12.5574 26.3139C12.0736 26.1376 11.5786 26.3026 11.3986 26.7883C11.3574 26.8333 11.1305 27.0151 10.6617 27.242C10.1949 27.467 9.99986 28.0276 10.2267 28.4945C10.388 28.8301 10.7236 29.0233 11.0724 29.0233C11.2092 29.0233 11.348 28.9933 11.4792 28.9295C12.8161 28.2826 13.0074 27.7689 13.0693 27.5983C13.2455 27.1145 13.043 26.4939 12.5574 26.3139Z" fill="url(#paint0_linear_34_336)"/>
<path d="M7.19686 28.037C6.31373 28.037 5.50372 27.8701 4.78746 27.5383C4.31871 27.3245 3.75995 27.527 3.54245 27.9976C3.32495 28.4664 3.5312 29.0233 4.00183 29.2408C4.96559 29.6852 6.03997 29.9102 7.19686 29.9102H7.26436C7.78187 29.9102 8.16812 29.4902 8.16812 28.9727C8.16812 28.4552 7.71624 28.037 7.19686 28.037Z" fill="url(#paint1_linear_34_336)"/>
<path d="M2.36299 25.2508C2.16236 24.9096 1.97674 24.5308 1.80798 24.1127C1.61486 23.6327 1.06173 23.4039 0.587347 23.5952C0.107342 23.7902 -0.12516 24.3358 0.0679667 24.8158C0.274219 25.3258 0.502971 25.7908 0.750474 26.2071C0.92485 26.5014 1.23798 26.6664 1.55861 26.6664C1.71986 26.6664 1.88486 26.6252 2.03486 26.5371C2.47924 26.2727 2.62737 25.6989 2.36299 25.2508Z" fill="url(#paint2_linear_34_336)"/>
<path d="M29.6502 0.296171C29.3896 0.0861687 29.0295 0.0317931 28.7145 0.155544L4.3393 11.4057C3.99242 11.5444 3.75992 11.8763 3.75054 12.2513C3.74117 12.6263 3.95492 12.9694 4.29617 13.1269L11.2506 16.9632L29.0633 1.02555L15.0007 18.9339V26.3383L20.7157 22.9426L24.9195 24.377C25.0451 24.4333 25.1801 24.4633 25.3133 24.4633C25.4633 24.4633 25.6151 24.4258 25.7501 24.3545C26.0108 24.2177 26.1889 23.9683 26.2376 23.6795L29.9877 1.1793C30.0421 0.847426 29.9146 0.508048 29.6502 0.296171Z" fill="url(#paint3_linear_34_336)"/>
</g>
<defs>
<linearGradient id="paint0_linear_34_336" x1="11.6321" y1="26.2452" x2="11.6321" y2="29.0233" gradientUnits="userSpaceOnUse">
<stop stop-color="#7FD9F0"/>
<stop offset="1" stop-color="#F99FB3"/>
</linearGradient>
<linearGradient id="paint1_linear_34_336" x1="5.81196" y1="27.4532" x2="5.81196" y2="29.9102" gradientUnits="userSpaceOnUse">
<stop stop-color="#7FD9F0"/>
<stop offset="1" stop-color="#F99FB3"/>
</linearGradient>
<linearGradient id="paint2_linear_34_336" x1="1.24709" y1="23.5277" x2="1.24709" y2="26.6664" gradientUnits="userSpaceOnUse">
<stop stop-color="#7FD9F0"/>
<stop offset="1" stop-color="#F99FB3"/>
</linearGradient>
<linearGradient id="paint3_linear_34_336" x1="16.8751" y1="0.0900879" x2="16.8751" y2="26.3383" gradientUnits="userSpaceOnUse">
<stop stop-color="#7FD9F0"/>
<stop offset="1" stop-color="#F99FB3"/>
</linearGradient>
<clipPath id="clip0_34_336">
<rect width="30" height="30" fill="white" transform="translate(0 0.00012207)"/>
</clipPath>
</defs>
</svg>
