<svg width="30" height="30" viewBox="0 0 30 30" fill="none" xmlns="http://www.w3.org/2000/svg">
<path d="M12.5575 26.3138C12.0737 26.1375 11.5787 26.3025 11.3987 26.7881C11.3574 26.8331 11.1306 27.015 10.6618 27.2419C10.1949 27.4669 9.99993 28.0275 10.2268 28.4944C10.3881 28.83 10.7237 29.0232 11.0724 29.0232C11.2093 29.0232 11.3481 28.9932 11.4793 28.9294C12.8162 28.2825 13.0075 27.7688 13.0693 27.5981C13.2456 27.1144 13.0431 26.4938 12.5575 26.3138Z" fill="#C19DFF"/>
<path d="M7.19678 28.0369C6.31365 28.0369 5.50364 27.87 4.78739 27.5381C4.31863 27.3244 3.75988 27.5269 3.54237 27.9975C3.32487 28.4663 3.53112 29.0232 4.00175 29.2407C4.96551 29.685 6.0399 29.91 7.19678 29.91H7.26428C7.78179 29.91 8.16804 29.49 8.16804 28.9725C8.16804 28.455 7.71616 28.0369 7.19678 28.0369Z" fill="#C19DFF"/>
<path d="M2.36304 25.2507C2.16241 24.9094 1.97678 24.5307 1.80803 24.1126C1.6149 23.6325 1.06177 23.4038 0.587393 23.595C0.107388 23.79 -0.125114 24.3357 0.0680125 24.8157C0.274265 25.3257 0.503017 25.7907 0.750519 26.2069C0.924896 26.5013 1.23802 26.6663 1.55865 26.6663C1.7199 26.6663 1.88491 26.6251 2.03491 26.5369C2.47929 26.2726 2.62741 25.6988 2.36304 25.2507Z" fill="#C19DFF"/>
<path d="M29.6502 0.295927C29.3895 0.0859245 29.0295 0.031549 28.7145 0.1553L4.33927 11.4054C3.99239 11.5442 3.75989 11.876 3.75051 12.251C3.74113 12.626 3.95489 12.9692 4.29614 13.1267L11.2506 16.963L29.0633 1.02531L15.0006 18.9336V26.3381L20.7157 22.9424L24.9195 24.3768C25.0451 24.433 25.1801 24.463 25.3132 24.463C25.4632 24.463 25.6151 24.4255 25.7501 24.3543C26.0107 24.2174 26.1889 23.968 26.2376 23.6793L29.9877 1.17906C30.042 0.847182 29.9145 0.507804 29.6502 0.295927Z" fill="#C19DFF"/>
</svg>
