<svg width="24" height="24" viewBox="0 0 24 24" fill="none" xmlns="http://www.w3.org/2000/svg">
<g clip-path="url(#clip0_34_327)">
<path d="M8.25 15C7.836 15 7.5 14.664 7.5 14.25V10.5C7.5 9.949 7.052 9.5 6.5 9.5C5.948 9.5 5.5 9.949 5.5 10.5V14.25C5.5 14.664 5.164 15 4.75 15C4.336 15 4 14.664 4 14.25V10.5C4 9.122 5.121 8 6.5 8C7.879 8 9 9.122 9 10.5V14.25C9 14.664 8.664 15 8.25 15Z" fill="url(#paint0_linear_34_327)"/>
<path d="M8.24995 13H4.74995C4.33595 13 4.33595 11.5 4.74995 11.5H8.24995C8.66395 11.5 8.66395 13 8.24995 13Z" fill="url(#paint1_linear_34_327)"/>
<path d="M19.25 15.504H14.75C14.336 15.504 14 15.168 14 14.754C14 14.34 14.336 14.004 14.75 14.004H19.25C19.664 14.004 20 14.34 20 14.754C20 15.168 19.664 15.504 19.25 15.504Z" fill="url(#paint2_linear_34_327)"/>
<path d="M15.25 20H14.75C14.336 20 14 19.664 14 19.25C14 18.836 14.336 18.5 14.75 18.5H15.25C16.49 18.5 17.5 17.491 17.5 16.25V14.754C17.5 14.34 19 14.34 19 14.754V16.25C19 18.318 17.317 20 15.25 20Z" fill="url(#paint3_linear_34_327)"/>
<path d="M19.25 19.9999C17.6751 19.9999 16.2211 19.0779 15.4541 17.5939C15.2641 17.2259 15.4081 16.7739 15.7751 16.5829C16.1451 16.3919 16.5961 16.5379 16.7861 16.9049C17.2951 17.8879 18.2381 18.4989 19.25 18.4989C19.664 18.4989 20 18.8349 20 19.2489C20 19.6629 19.664 19.9999 19.25 19.9999V19.9999Z" fill="url(#paint4_linear_34_327)"/>
<path d="M17 15.254C16.586 15.254 16.25 14.918 16.25 14.504V13.5C16.25 13.086 16.586 12.75 17 12.75C17.414 12.75 17.75 13.086 17.75 13.5V14.504C17.75 14.918 17.414 15.254 17 15.254Z" fill="url(#paint5_linear_34_327)"/>
<path d="M6.75 20C6.558 20 6.36599 19.927 6.21999 19.78C5.92699 19.487 5.92699 19.012 6.21999 18.719L16.72 8.21902C17.013 7.92602 17.488 7.92602 17.781 8.21902C18.074 8.51202 18.074 8.98702 17.781 9.28002L7.281 19.78C7.134 19.927 6.942 20 6.75 20V20Z" fill="url(#paint6_linear_34_327)"/>
<path d="M21 1H3C1.346 1 0 2.346 0 4V20C0 21.654 1.346 23 3 23H21C22.654 23 24 21.654 24 20V4C24 2.346 22.654 1 21 1ZM21 21H3C2.449 21 2 20.552 2 20V6H22V20C22 20.552 21.551 21 21 21Z" fill="url(#paint7_linear_34_327)"/>
</g>
<defs>
<linearGradient id="paint0_linear_34_327" x1="6.5" y1="8" x2="6.5" y2="15" gradientUnits="userSpaceOnUse">
<stop stop-color="#7FD9F0"/>
<stop offset="1" stop-color="#F99FB3"/>
</linearGradient>
<linearGradient id="paint1_linear_34_327" x1="6.49995" y1="11.5" x2="6.49995" y2="13" gradientUnits="userSpaceOnUse">
<stop stop-color="#7FD9F0"/>
<stop offset="1" stop-color="#F99FB3"/>
</linearGradient>
<linearGradient id="paint2_linear_34_327" x1="17" y1="14.004" x2="17" y2="15.504" gradientUnits="userSpaceOnUse">
<stop stop-color="#7FD9F0"/>
<stop offset="1" stop-color="#F99FB3"/>
</linearGradient>
<linearGradient id="paint3_linear_34_327" x1="16.5" y1="14.4435" x2="16.5" y2="20" gradientUnits="userSpaceOnUse">
<stop stop-color="#7FD9F0"/>
<stop offset="1" stop-color="#F99FB3"/>
</linearGradient>
<linearGradient id="paint4_linear_34_327" x1="17.6851" y1="16.4989" x2="17.6851" y2="19.9999" gradientUnits="userSpaceOnUse">
<stop stop-color="#7FD9F0"/>
<stop offset="1" stop-color="#F99FB3"/>
</linearGradient>
<linearGradient id="paint5_linear_34_327" x1="17" y1="12.75" x2="17" y2="15.254" gradientUnits="userSpaceOnUse">
<stop stop-color="#7FD9F0"/>
<stop offset="1" stop-color="#F99FB3"/>
</linearGradient>
<linearGradient id="paint6_linear_34_327" x1="12.0005" y1="7.99927" x2="12.0005" y2="20" gradientUnits="userSpaceOnUse">
<stop stop-color="#7FD9F0"/>
<stop offset="1" stop-color="#F99FB3"/>
</linearGradient>
<linearGradient id="paint7_linear_34_327" x1="12" y1="1" x2="12" y2="23" gradientUnits="userSpaceOnUse">
<stop stop-color="#7FD9F0"/>
<stop offset="1" stop-color="#F99FB3"/>
</linearGradient>
<clipPath id="clip0_34_327">
<rect width="24" height="24" fill="white"/>
</clipPath>
</defs>
</svg>
