<svg width="25" height="25" viewBox="0 0 25 25" fill="none" xmlns="http://www.w3.org/2000/svg">
<path d="M12.5 2.08376C8.12501 2.08376 4.16626 5.43751 4.16626 10.625C4.16626 13.9375 6.71876 17.8338 11.8125 22.3225C12.005 22.4886 12.2508 22.58 12.505 22.58C12.7593 22.58 13.005 22.4886 13.1975 22.3225C18.2813 17.8338 20.8338 13.9375 20.8338 10.625C20.8338 5.43751 16.875 2.08376 12.5 2.08376V2.08376ZM12.5 12.5C11.3538 12.5 10.4163 11.5625 10.4163 10.4163C10.4163 9.27001 11.3538 8.3325 12.5 8.3325C13.6463 8.3325 14.5838 9.27001 14.5838 10.4163C14.5838 11.5625 13.6463 12.5 12.5 12.5Z" fill="#C19DFF"/>
</svg>
