<svg width="364" height="43" viewBox="0 0 364 43" fill="none" xmlns="http://www.w3.org/2000/svg">
<path d="M14.054 34.552C11.5393 34.552 9.22397 33.9693 7.10797 32.804C4.99197 31.6387 3.28997 29.9213 2.00197 27.652C0.744633 25.352 0.115967 22.5307 0.115967 19.188C0.115967 15.876 0.759967 13.0547 2.04797 10.724C3.36663 8.36267 5.0993 6.56867 7.24597 5.34201C9.4233 4.08467 11.7693 3.45601 14.284 3.45601C16.216 3.45601 17.9486 3.85467 19.482 4.65201C21.0153 5.41867 22.288 6.32334 23.3 7.366L19.712 11.69C18.9453 10.9847 18.1326 10.4173 17.274 9.98801C16.446 9.52801 15.4953 9.29801 14.422 9.29801C13.0726 9.29801 11.8306 9.68134 10.696 10.448C9.59197 11.2147 8.70263 12.3187 8.02797 13.76C7.38397 15.2013 7.06197 16.934 7.06197 18.958C7.06197 22.0247 7.7213 24.4167 9.03997 26.134C10.3586 27.8513 12.122 28.71 14.33 28.71C15.5566 28.71 16.6453 28.434 17.596 27.882C18.5773 27.33 19.436 26.6707 20.172 25.904L23.76 30.136C21.2453 33.08 18.01 34.552 14.054 34.552Z" fill="#141414"/>
<path d="M27.7634 34V11.184H34.5254V34H27.7634ZM31.1214 7.82601C29.9867 7.82601 29.0667 7.50401 28.3614 6.86001C27.6561 6.21601 27.3034 5.35734 27.3034 4.28401C27.3034 3.21067 27.6561 2.352 28.3614 1.70801C29.0667 1.064 29.9867 0.742004 31.1214 0.742004C32.2561 0.742004 33.1761 1.064 33.8814 1.70801C34.5867 2.352 34.9394 3.21067 34.9394 4.28401C34.9394 5.35734 34.5867 6.21601 33.8814 6.86001C33.1761 7.50401 32.2561 7.82601 31.1214 7.82601Z" fill="#141414"/>
<path d="M40.4763 34V11.184H45.9963L46.4563 14.082H46.6403C47.6216 13.162 48.695 12.3647 49.8603 11.69C51.0563 10.9847 52.421 10.632 53.9543 10.632C56.4383 10.632 58.2323 11.46 59.3363 13.116C60.471 14.7413 61.0383 16.98 61.0383 19.832V34H54.2763V20.706C54.2763 19.05 54.0463 17.9153 53.5863 17.302C53.157 16.6887 52.4516 16.382 51.4703 16.382C50.6116 16.382 49.8756 16.5813 49.2623 16.98C48.649 17.348 47.9743 17.8847 47.2383 18.59V34H40.4763Z" fill="#141414"/>
<path d="M74.9425 34.552C72.1212 34.552 69.8518 33.494 68.1345 31.378C66.4478 29.2313 65.6045 26.3027 65.6045 22.592C65.6045 20.108 66.0492 17.9767 66.9385 16.198C67.8585 14.3887 69.0392 13.0087 70.4805 12.058C71.9525 11.1073 73.4858 10.632 75.0805 10.632C76.3378 10.632 77.3959 10.8467 78.2545 11.276C79.1132 11.7053 79.9258 12.288 80.6925 13.024L80.4165 9.52801V1.75401H87.1785V34H81.6585L81.1985 31.746H81.0145C80.2172 32.5433 79.2818 33.218 78.2085 33.77C77.1352 34.2913 76.0465 34.552 74.9425 34.552ZM76.6905 29.032C77.4265 29.032 78.0858 28.8787 78.6685 28.572C79.2818 28.2653 79.8645 27.7287 80.4165 26.962V17.624C79.8338 17.072 79.2052 16.6887 78.5305 16.474C77.8865 16.2593 77.2578 16.152 76.6445 16.152C75.5712 16.152 74.6205 16.6733 73.7925 17.716C72.9645 18.728 72.5505 20.3227 72.5505 22.5C72.5505 24.7387 72.9032 26.3947 73.6085 27.468C74.3445 28.5107 75.3718 29.032 76.6905 29.032Z" fill="#141414"/>
<path d="M95.6997 42.924C95.025 42.924 94.427 42.878 93.9057 42.786C93.415 42.694 92.9397 42.5867 92.4797 42.464L93.6757 37.312C93.8903 37.3427 94.1357 37.3887 94.4117 37.45C94.6877 37.542 94.9483 37.588 95.1937 37.588C96.3283 37.588 97.2023 37.312 97.8157 36.76C98.429 36.208 98.889 35.4873 99.1957 34.598L99.5177 33.402L90.7317 11.184H97.5397L100.806 20.982C101.143 22.0247 101.45 23.0827 101.726 24.156C102.002 25.2293 102.293 26.3333 102.6 27.468H102.784C103.029 26.3947 103.274 25.3213 103.52 24.248C103.796 23.144 104.072 22.0553 104.348 20.982L107.108 11.184H113.594L105.682 34.23C104.976 36.1313 104.194 37.726 103.336 39.014C102.477 40.3327 101.434 41.314 100.208 41.958C99.0117 42.602 97.509 42.924 95.6997 42.924Z" fill="#141414"/>
<path d="M126.919 34V4.00801H133.865L141.685 18.912L144.629 25.536H144.813C144.69 23.9413 144.522 22.1627 144.307 20.2C144.092 18.2373 143.985 16.3667 143.985 14.588V4.00801H150.425V34H143.479L135.659 19.05L132.715 12.518H132.531C132.684 14.174 132.853 15.9527 133.037 17.854C133.252 19.7553 133.359 21.5953 133.359 23.374V34H126.919Z" fill="#141414"/>
<path d="M162.709 34.552C160.623 34.552 158.967 33.8927 157.741 32.574C156.514 31.2247 155.901 29.584 155.901 27.652C155.901 25.26 156.913 23.3893 158.937 22.04C160.961 20.6907 164.227 19.786 168.735 19.326C168.673 18.314 168.367 17.5167 167.815 16.934C167.293 16.3207 166.404 16.014 165.147 16.014C164.196 16.014 163.23 16.198 162.249 16.566C161.267 16.934 160.225 17.44 159.121 18.084L156.683 13.622C158.124 12.7327 159.657 12.012 161.283 11.46C162.939 10.908 164.656 10.632 166.435 10.632C169.348 10.632 171.587 11.4753 173.151 13.162C174.715 14.8487 175.497 17.44 175.497 20.936V34H169.977L169.517 31.654H169.333C168.382 32.5127 167.355 33.218 166.251 33.77C165.177 34.2913 163.997 34.552 162.709 34.552ZM165.009 29.308C165.775 29.308 166.435 29.1393 166.987 28.802C167.569 28.434 168.152 27.9587 168.735 27.376V23.374C166.343 23.6807 164.687 24.1713 163.767 24.846C162.847 25.49 162.387 26.2567 162.387 27.146C162.387 27.882 162.617 28.434 163.077 28.802C163.567 29.1393 164.211 29.308 165.009 29.308Z" fill="#141414"/>
<path d="M187.933 34.552C186.43 34.552 184.881 34.2607 183.287 33.678C181.723 33.0953 180.358 32.3287 179.193 31.378L182.229 27.146C183.271 27.9127 184.268 28.5107 185.219 28.94C186.2 29.3387 187.166 29.538 188.117 29.538C189.129 29.538 189.865 29.3693 190.325 29.032C190.785 28.664 191.015 28.1887 191.015 27.606C191.015 27.0847 190.785 26.6553 190.325 26.318C189.895 25.9807 189.328 25.674 188.623 25.398C187.917 25.0913 187.166 24.7847 186.369 24.478C185.449 24.11 184.529 23.65 183.609 23.098C182.719 22.546 181.968 21.8407 181.355 20.982C180.741 20.0927 180.435 19.0193 180.435 17.762C180.435 15.646 181.232 13.9287 182.827 12.61C184.452 11.2913 186.568 10.632 189.175 10.632C190.923 10.632 192.456 10.9387 193.775 11.552C195.124 12.1347 196.274 12.794 197.225 13.53L194.189 17.578C193.391 16.9647 192.594 16.4893 191.797 16.152C190.999 15.8147 190.202 15.646 189.405 15.646C187.657 15.646 186.783 16.244 186.783 17.44C186.783 18.176 187.212 18.7433 188.071 19.142C188.96 19.51 189.987 19.9087 191.153 20.338C192.134 20.6753 193.085 21.12 194.005 21.672C194.955 22.1933 195.737 22.8987 196.351 23.788C196.995 24.6467 197.317 25.7813 197.317 27.192C197.317 29.2467 196.519 30.9947 194.925 32.436C193.33 33.8467 190.999 34.552 187.933 34.552Z" fill="#141414"/>
<path d="M211.547 34.552C209.431 34.552 207.514 34.092 205.797 33.172C204.11 32.2213 202.761 30.8567 201.749 29.078C200.768 27.2687 200.277 25.1067 200.277 22.592C200.277 20.0467 200.829 17.8847 201.933 16.106C203.037 14.3273 204.494 12.978 206.303 12.058C208.112 11.1073 210.06 10.632 212.145 10.632C213.556 10.632 214.798 10.862 215.871 11.322C216.975 11.782 217.956 12.3647 218.815 13.07L215.641 17.44C214.568 16.5507 213.54 16.106 212.559 16.106C210.934 16.106 209.63 16.6887 208.649 17.854C207.698 19.0193 207.223 20.5987 207.223 22.592C207.223 24.5547 207.698 26.134 208.649 27.33C209.63 28.4953 210.857 29.078 212.329 29.078C213.065 29.078 213.786 28.9247 214.491 28.618C215.196 28.2807 215.84 27.882 216.423 27.422L219.091 31.838C217.956 32.8193 216.73 33.5247 215.411 33.954C214.092 34.3527 212.804 34.552 211.547 34.552Z" fill="#141414"/>
<path d="M223.084 34V11.184H229.846V34H223.084ZM226.442 7.82601C225.307 7.82601 224.387 7.50401 223.682 6.86001C222.976 6.21601 222.624 5.35734 222.624 4.28401C222.624 3.21067 222.976 2.352 223.682 1.70801C224.387 1.064 225.307 0.742004 226.442 0.742004C227.576 0.742004 228.496 1.064 229.202 1.70801C229.907 2.352 230.26 3.21067 230.26 4.28401C230.26 5.35734 229.907 6.21601 229.202 6.86001C228.496 7.50401 227.576 7.82601 226.442 7.82601Z" fill="#141414"/>
<path d="M235.797 34V11.184H241.317L241.777 14.128H241.961C242.911 13.1773 243.923 12.3647 244.997 11.69C246.07 10.9847 247.358 10.632 248.861 10.632C250.486 10.632 251.789 10.9693 252.771 11.644C253.783 12.288 254.58 13.2233 255.163 14.45C256.175 13.4073 257.248 12.518 258.383 11.782C259.517 11.0153 260.836 10.632 262.339 10.632C264.792 10.632 266.586 11.46 267.721 13.116C268.886 14.7413 269.469 16.98 269.469 19.832V34H262.707V20.706C262.707 19.05 262.477 17.9153 262.017 17.302C261.587 16.6887 260.882 16.382 259.901 16.382C258.766 16.382 257.463 17.118 255.991 18.59V34H249.229V20.706C249.229 19.05 248.999 17.9153 248.539 17.302C248.109 16.6887 247.404 16.382 246.423 16.382C245.288 16.382 244 17.118 242.559 18.59V34H235.797Z" fill="#141414"/>
<path d="M285.45 34.552C283.273 34.552 281.31 34.0767 279.562 33.126C277.814 32.1753 276.434 30.8107 275.422 29.032C274.41 27.2533 273.904 25.1067 273.904 22.592C273.904 20.108 274.41 17.9767 275.422 16.198C276.465 14.4193 277.814 13.0547 279.47 12.104C281.126 11.1227 282.859 10.632 284.668 10.632C286.845 10.632 288.639 11.1227 290.05 12.104C291.491 13.0547 292.565 14.358 293.27 16.014C294.006 17.6393 294.374 19.4947 294.374 21.58C294.374 22.1627 294.343 22.7453 294.282 23.328C294.221 23.88 294.159 24.294 294.098 24.57H280.436C280.743 26.226 281.433 27.4527 282.506 28.25C283.579 29.0167 284.867 29.4 286.37 29.4C287.995 29.4 289.636 28.894 291.292 27.882L293.546 31.976C292.381 32.7733 291.077 33.402 289.636 33.862C288.195 34.322 286.799 34.552 285.45 34.552ZM280.39 20.108H288.624C288.624 18.8507 288.317 17.8233 287.704 17.026C287.121 16.198 286.155 15.784 284.806 15.784C283.763 15.784 282.828 16.152 282 16.888C281.172 17.5933 280.635 18.6667 280.39 20.108Z" fill="#141414"/>
<path d="M299.047 34V11.184H304.567L305.027 14.082H305.211C306.192 13.162 307.265 12.3647 308.431 11.69C309.627 10.9847 310.991 10.632 312.525 10.632C315.009 10.632 316.803 11.46 317.907 13.116C319.041 14.7413 319.609 16.98 319.609 19.832V34H312.847V20.706C312.847 19.05 312.617 17.9153 312.157 17.302C311.727 16.6887 311.022 16.382 310.041 16.382C309.182 16.382 308.446 16.5813 307.833 16.98C307.219 17.348 306.545 17.8847 305.809 18.59V34H299.047Z" fill="#141414"/>
<path d="M334.157 34.552C331.335 34.552 329.312 33.7393 328.085 32.114C326.889 30.4887 326.291 28.3573 326.291 25.72V16.474H323.163V11.46L326.659 11.184L327.441 5.11201H333.053V11.184H338.527V16.474H333.053V25.628C333.053 26.916 333.314 27.8513 333.835 28.434C334.387 28.986 335.107 29.262 335.997 29.262C336.365 29.262 336.733 29.216 337.101 29.124C337.499 29.032 337.852 28.9247 338.159 28.802L339.217 33.724C338.634 33.908 337.914 34.092 337.055 34.276C336.227 34.46 335.261 34.552 334.157 34.552Z" fill="#141414"/>
<path d="M351.97 34.552C350.038 34.552 348.213 34.092 346.496 33.172C344.809 32.2213 343.444 30.8567 342.402 29.078C341.359 27.2687 340.838 25.1067 340.838 22.592C340.838 20.0467 341.359 17.8847 342.402 16.106C343.444 14.3273 344.809 12.978 346.496 12.058C348.213 11.1073 350.038 10.632 351.97 10.632C353.902 10.632 355.711 11.1073 357.398 12.058C359.084 12.978 360.449 14.3273 361.492 16.106C362.534 17.8847 363.056 20.0467 363.056 22.592C363.056 25.1067 362.534 27.2687 361.492 29.078C360.449 30.8567 359.084 32.2213 357.398 33.172C355.711 34.092 353.902 34.552 351.97 34.552ZM351.97 29.078C353.35 29.078 354.392 28.4953 355.098 27.33C355.803 26.134 356.156 24.5547 356.156 22.592C356.156 20.5987 355.803 19.0193 355.098 17.854C354.392 16.6887 353.35 16.106 351.97 16.106C350.559 16.106 349.501 16.6887 348.796 17.854C348.121 19.0193 347.784 20.5987 347.784 22.592C347.784 24.5547 348.121 26.134 348.796 27.33C349.501 28.4953 350.559 29.078 351.97 29.078Z" fill="#141414"/>
</svg>
